<svg width="32" height="32" viewBox="0 0 32 32" fill="none" xmlns="http://www.w3.org/2000/svg">
<g clip-path="url(#clip0_2648_70)">
<path d="M17.6487 17.6883C16.0338 17.7788 15.1316 19.5657 16.0688 20.8597C16.9948 22.1381 19.0125 21.9426 19.6629 20.5169C20.2901 19.1425 19.1885 17.602 17.6492 17.6883H17.6487ZM17.7629 18.3656L18.6106 19.1834L18.3068 19.4839L17.7689 18.97L17.2312 19.4839L16.9217 19.1887L17.7638 18.3656H17.7629ZM18.08 19.6976L17.7685 20.0056L17.4514 19.7031L17.7629 19.3952L18.08 19.6976ZM16.3904 19.7031L16.6943 19.4026L17.0039 19.6976L16.6999 19.9981L16.3904 19.7031ZM17.7629 21.0357L16.9206 20.2179L17.2245 19.9174L17.7623 20.4311L18.3002 19.9174L18.6097 20.2179L17.7618 21.0357H17.7629ZM18.8364 19.9987L18.5269 19.7036L18.8309 19.403L19.1404 19.6982L18.8364 19.9987Z" fill="#CCA015"/>
<path d="M22.0655 8.28635C23.0179 8.13857 23.4263 9.37704 22.5978 9.7401C21.3599 10.283 20.8677 8.47256 22.0655 8.28635Z" fill="#CCA015"/>
<path d="M13.624 9.56235C13.9967 9.56235 14.2988 9.26901 14.2988 8.90716C14.2988 8.5453 13.9967 8.25195 13.624 8.25195C13.2513 8.25195 12.9492 8.5453 12.9492 8.90716C12.9492 9.26901 13.2513 9.56235 13.624 9.56235Z" fill="#CCA015"/>
<path d="M25.0383 14.967C27.8886 14.5227 27.5614 11.0777 27.7106 8.94073C27.8061 7.57271 28.2876 4.93961 27.4478 3.8253C26.6365 2.7489 24.4969 2.47993 23.2119 2.27303C19.9145 1.74247 16.1564 1.4331 12.82 1.62473C9.1812 1.8341 8.49475 3.8051 8.37754 7.01604C8.30499 9.01167 8.38364 12.6857 10.271 13.9014C11.9555 14.9868 14.8109 14.7 16.7516 14.7769V15.3193C15.8013 15.2395 14.9936 15.7035 14.7145 16.5932C14.0787 16.6222 13.4862 16.8449 12.8956 17.043C13.0407 16.2316 12.368 15.9035 11.7622 15.5567C10.9068 15.067 9.7804 14.5187 8.87069 14.1276C8.52569 13.9798 7.74993 13.6055 7.40442 13.7551C7.11674 13.8798 7.08833 14.3024 6.96352 14.5587C6.93308 14.6212 6.96453 14.6813 6.83262 14.6286C6.69157 14.572 6.81182 14.3715 6.81131 14.2597C6.81029 14.0636 6.71187 13.8847 6.57792 13.7429C5.74889 13.3118 4.92189 12.6133 4.10198 12.2059C3.55505 11.9344 3.07102 11.9177 2.73971 12.4778C2.41095 13.0335 2.39522 13.6389 2.86757 14.1192C2.98275 14.2359 3.94217 14.9385 4.05227 14.9636C4.34603 15.0301 4.62355 14.9261 4.70473 14.6296C4.85594 14.0794 3.75343 13.7551 3.55708 13.4252C3.49822 13.3266 3.46727 13.0763 3.586 13.0527C3.70878 13.0281 5.42621 14.2335 5.71895 14.333L5.73417 14.4453C5.57538 14.6449 5.12331 16.0764 5.00052 16.104C4.46932 15.7804 3.9163 15.4567 3.39117 15.1128C3.1243 14.9385 2.36274 14.2917 2.11363 14.2912C1.76506 14.2906 1.60526 14.6276 1.75594 14.9276C1.86604 15.1473 2.63672 15.675 2.88381 15.8519C3.24505 16.1104 4.38154 16.9514 4.71437 17.0794C5.00256 17.1908 5.31459 17.1814 5.5637 16.9938C5.65959 16.9213 5.81739 16.6617 5.87421 16.6528C5.89298 16.6499 6.08527 16.7449 6.09136 16.7548C6.10253 16.774 6.0386 16.9616 6.04723 17.0612C6.08527 17.4902 6.62511 17.8558 6.87828 18.1799C7.18828 18.576 7.36383 19.0726 7.67738 19.473C7.76211 19.5815 8.16191 19.95 8.17053 19.984C8.19337 20.0707 7.99397 20.2815 7.92091 20.3668C7.54597 20.8042 6.91735 21.1264 7.18625 21.8215C7.30396 22.1258 7.92954 22.6466 8.24207 22.7668C9.20303 23.1358 9.66524 22.2805 10.0036 21.5747C10.3689 21.9431 10.6774 22.3347 11.2066 22.4994C12.1412 22.79 12.7297 22.2407 13.1696 21.5214C13.4167 21.1175 13.6546 20.2732 13.886 20.0002C13.9814 19.8874 14.165 19.7987 14.3152 19.8017C14.3294 21.2757 14.4659 22.7411 14.6263 24.2043C14.6551 24.4689 14.78 24.8541 14.7738 25.0949C14.7561 25.8073 14.0093 26.7142 14.508 27.5211C14.5735 27.6271 14.7607 27.7537 14.7611 27.8453C14.7632 28.1222 14.4385 28.5999 14.4445 28.9173C14.0692 29.0178 13.8632 28.8833 13.5521 29.1838C13.1605 29.5626 12.8302 30.5237 13.5029 30.8119C13.9134 30.9877 14.2549 30.8843 14.643 30.8834C15.401 30.8814 16.3498 30.9563 17.0799 30.8848C18.0139 30.7937 18.2397 29.906 17.6151 29.2823C17.4802 29.1473 17.0803 28.9833 17.0631 28.9562C17.0322 28.9084 17.0428 27.9128 17.0809 27.8315C17.1082 27.7739 17.2168 27.7112 17.2675 27.6187C17.4923 27.2093 17.5639 26.7856 17.6125 26.3279C17.6262 26.197 17.5562 25.9113 17.6958 25.8669C17.747 25.8506 18.1931 25.8177 18.2981 25.8113C18.7587 25.7846 19.2316 25.83 19.6928 25.8102C19.7451 26.4246 19.6983 27.2566 20.1727 27.7334C20.2762 27.8374 20.5847 27.965 20.5978 27.9857C20.6714 28.1039 20.6253 28.7961 20.7085 28.9867C19.6842 29.166 19.2067 30.969 20.5278 31.0839C21.5888 31.176 22.7491 30.9537 23.8237 31.0282C24.9689 30.8174 24.6725 29.7276 23.9506 29.1892C23.5635 28.9009 23.6284 29.1345 23.4208 28.6685C23.3057 28.4094 22.9185 27.7201 22.8902 27.5054C22.8627 27.2975 23.0164 26.8202 22.9926 26.4733C22.9775 26.2516 22.8161 25.791 22.8374 25.6403C22.8476 25.5699 23.2113 25.1969 23.2971 24.9501C23.5457 24.2339 23.3879 22.2343 23.3463 21.4007C23.3371 21.2126 23.3508 21.0224 23.3463 20.8347C23.9186 21.2608 24.0794 21.9673 24.1064 22.6333C24.1312 23.249 23.9298 23.4417 23.7771 23.9881C23.4259 25.2472 23.3864 27.1216 25.1967 25.8097C25.6203 26.429 26.3722 26.3994 26.736 25.728C27.1764 24.9146 26.8303 22.3929 26.6878 21.4082C26.4158 19.5297 26.0034 18.849 24.3438 17.871C24.2043 17.7889 23.6116 17.5248 23.5614 17.4735C23.4848 17.3952 23.5046 17.1716 23.4635 17.0514C23.0409 15.8252 21.5848 15.5345 20.4031 15.5154V14.9237C21.9444 14.931 23.5056 15.204 25.0378 14.9655L25.0383 14.967ZM6.56219 15.6567C6.55712 15.6701 6.55205 15.6834 6.54596 15.6972C6.53733 15.7177 6.52769 15.739 6.51805 15.7606C6.48914 15.8252 6.45971 15.8937 6.45108 15.9602C6.37549 15.9518 6.3217 15.9355 6.28467 15.9133C6.22937 15.8799 6.2116 15.8321 6.21668 15.7764C6.22277 15.7085 6.26183 15.6287 6.30597 15.5478C6.31004 15.5405 6.3141 15.533 6.31814 15.5256C6.33845 15.4887 6.35925 15.4523 6.37751 15.4163C6.42723 15.4227 6.4663 15.4321 6.49624 15.4444C6.51146 15.4503 6.52415 15.4572 6.5348 15.4651C6.54545 15.473 6.55407 15.4809 6.56118 15.4892C6.57183 15.5025 6.57792 15.5168 6.58147 15.5321C6.5835 15.5425 6.58452 15.5532 6.584 15.5647C6.58299 15.5927 6.57436 15.6237 6.56219 15.6567ZM9.34305 20.7687C9.3258 20.8091 9.305 20.8549 9.28166 20.9037C9.25833 20.953 9.23244 21.0052 9.20505 21.0594C9.15888 21.1495 9.10865 21.2446 9.05843 21.3362C9.03813 21.3727 9.01834 21.4091 8.99805 21.4442C8.95847 21.514 8.91991 21.5801 8.8849 21.6372C8.81488 21.7519 8.75857 21.8328 8.73472 21.847C8.7124 21.8604 8.68653 21.8668 8.65811 21.8683C8.51555 21.8752 8.31006 21.749 8.19996 21.6303C8.15582 21.5825 8.1269 21.5362 8.12336 21.4998C8.12031 21.4707 8.12843 21.4407 8.14416 21.4102C8.1543 21.3898 8.168 21.3693 8.18424 21.3486C8.20047 21.3278 8.21874 21.3071 8.23853 21.2864C8.25832 21.2658 8.27962 21.2455 8.30143 21.2253C8.31209 21.2155 8.32326 21.2051 8.33442 21.1959C8.36739 21.1662 8.40037 21.1377 8.43031 21.1106C8.46024 21.0835 8.48662 21.0584 8.50692 21.0352C8.51605 21.0248 8.52468 21.015 8.5333 21.0046C8.55056 20.9839 8.56679 20.9634 8.58251 20.943C8.61447 20.9017 8.64441 20.8609 8.67333 20.8214C8.68805 20.8018 8.70225 20.7825 8.71646 20.7633C8.73067 20.7441 8.74487 20.7263 8.75908 20.7086C8.78038 20.6825 8.8017 20.6574 8.82351 20.6353C8.85294 20.6051 8.88338 20.5791 8.91637 20.5584C8.95746 20.5322 9.00161 20.5146 9.05234 20.5081C9.07263 20.5057 9.09343 20.5046 9.11575 20.5057C9.19339 20.5091 9.2837 20.5362 9.39328 20.5938C9.40445 20.6091 9.38365 20.6751 9.34357 20.7692L9.34305 20.7687ZM10.5815 19.9096C10.5744 19.9184 10.5678 19.9263 10.5612 19.9336C10.5414 19.9558 10.5237 19.9707 10.509 19.9771C10.4932 19.984 10.4724 19.9864 10.4476 19.986C10.4349 19.986 10.4217 19.9845 10.4075 19.9825C10.336 19.9731 10.2431 19.946 10.1487 19.9131C9.99756 19.8604 9.84331 19.7933 9.7662 19.7618C9.46127 19.6371 9.22027 19.5086 9.02291 19.3745C8.92448 19.3076 8.83671 19.2396 8.75806 19.1696C8.7053 19.1233 8.65659 19.076 8.61093 19.0282C8.54243 18.9564 8.48054 18.883 8.42269 18.8081C8.30752 18.6578 8.21011 18.4996 8.10965 18.3331C8.07616 18.2775 8.04269 18.2208 8.00768 18.1632C7.97267 18.1055 7.93715 18.047 7.8996 17.9874C7.88083 17.9573 7.86156 17.9272 7.84177 17.8967C7.74283 17.7445 7.63071 17.5853 7.49371 17.4179C7.43892 17.3508 7.38007 17.2828 7.31664 17.2134C7.29635 17.1912 7.27605 17.173 7.25677 17.1577C7.15936 17.0814 7.0792 17.076 7.06499 16.974C7.06195 16.9538 7.06195 16.9292 7.06499 16.8996C7.06804 16.87 7.07362 16.8356 7.08275 16.7942C7.1005 16.7726 7.1208 16.738 7.14262 16.6928C7.17915 16.6173 7.22126 16.513 7.26591 16.3912C7.27504 16.367 7.28367 16.3419 7.29331 16.3163C7.31157 16.2651 7.33034 16.2114 7.34912 16.1562C7.35876 16.1287 7.36788 16.1006 7.37752 16.0725C7.3968 16.0158 7.41558 15.9582 7.43486 15.9001C7.46377 15.8128 7.49219 15.7243 7.5201 15.6375C7.548 15.5508 7.5754 15.4656 7.60178 15.3847C7.65404 15.2231 7.70224 15.0779 7.7408 14.9705C7.76668 14.899 7.789 14.8439 7.80575 14.8119C7.81436 14.7956 7.82147 14.7852 7.82705 14.7818C7.85141 14.765 7.91635 14.7769 7.99804 14.802C8.17765 14.8577 8.4369 14.9799 8.51656 15.0148C8.57389 15.0399 8.63274 15.0655 8.69312 15.0922C8.78394 15.1321 8.8773 15.1739 8.97369 15.2168C9.03763 15.2453 9.10307 15.2749 9.16903 15.3049C9.23499 15.3351 9.30195 15.3656 9.36944 15.3966C9.43691 15.4276 9.50491 15.4592 9.57339 15.4912C9.98385 15.6834 10.4085 15.8912 10.7977 16.0991C10.8626 16.1336 10.9265 16.1685 10.9889 16.2031C11.0204 16.2203 11.0513 16.2376 11.0818 16.2547C11.1432 16.2892 11.2031 16.3238 11.2619 16.3577C11.3203 16.3917 11.3776 16.4257 11.4329 16.4597C11.4882 16.4932 11.5415 16.5266 11.5932 16.5602C11.6343 16.5868 11.684 16.6144 11.7322 16.6449C11.7804 16.6755 11.8271 16.7089 11.8636 16.7479C11.9073 16.7947 11.9357 16.8489 11.9326 16.9144C11.9271 17.0385 11.7683 17.4375 11.5998 17.8287C11.5308 17.9897 11.4598 18.1493 11.3974 18.2884C11.3796 18.3282 11.3624 18.3662 11.3461 18.4016C11.338 18.4194 11.3304 18.4371 11.3228 18.4538C11.2847 18.5376 11.2533 18.6061 11.232 18.6529C11.2066 18.7085 11.1584 18.8144 11.0985 18.9435C11.0234 19.1051 10.9301 19.3021 10.8372 19.481C10.819 19.517 10.8002 19.5519 10.7819 19.5854C10.7271 19.6869 10.6744 19.778 10.6277 19.8469C10.612 19.8702 10.5973 19.8904 10.583 19.9082L10.5815 19.9096ZM13.1381 19.3756C13.1295 19.4234 13.0448 19.5139 12.9849 19.5953C12.9651 19.6224 12.9479 19.6484 12.9372 19.6711C12.8048 19.9564 12.5876 20.5978 12.3177 21.0775C12.2771 21.1495 12.2355 21.218 12.1929 21.2806C12.1645 21.3224 12.1356 21.3618 12.1062 21.3987C12.0032 21.5269 11.8946 21.6194 11.7814 21.6539C11.7287 21.6703 11.6678 21.6712 11.6018 21.6603C11.5359 21.6496 11.4654 21.6274 11.3933 21.5963C11.3644 21.584 11.336 21.5702 11.3071 21.5554C11.2639 21.5332 11.2208 21.5082 11.1792 21.4811C11.1513 21.4633 11.1239 21.4442 11.097 21.4249C11.0701 21.4051 11.0442 21.3855 11.0189 21.3648C10.9808 21.3338 10.9453 21.3017 10.9128 21.2697C10.8799 21.2377 10.8504 21.2046 10.824 21.1726C10.7632 21.0973 10.7226 21.0239 10.7129 20.9614C10.7094 20.9396 10.72 20.9219 10.7393 20.9067C10.8038 20.8549 10.9686 20.8278 11.0615 20.7731C11.0894 20.7569 11.1107 20.7382 11.1209 20.7155C11.8281 20.016 12.0996 18.9711 12.5014 18.0908C12.5014 18.0908 12.8956 18.0899 12.8956 18.1035C12.8956 18.1568 12.8936 18.2179 12.891 18.2819C12.8885 18.346 12.8855 18.414 12.8834 18.4809C12.8829 18.4976 12.8824 18.5145 12.8819 18.5312C12.8814 18.5642 12.8809 18.5972 12.8809 18.6292C12.8809 18.709 12.885 18.7824 12.8956 18.8426C12.9179 18.9726 13.1554 19.2814 13.1386 19.3761L13.1381 19.3756ZM14.3883 18.3702C14.3883 18.3838 14.3878 18.3976 14.3872 18.4115C14.3831 18.5741 14.3777 18.7026 14.3635 18.7165C14.3573 18.7223 14.3253 18.7337 14.2798 18.7435C14.2685 18.7459 14.2564 18.7485 14.2431 18.7508C14.2178 18.7554 14.1894 18.7593 14.1605 18.7623C14.1457 18.7637 14.1311 18.7647 14.1163 18.7652C14.1016 18.7657 14.0869 18.7657 14.0722 18.7652C13.9697 18.7623 13.8758 18.7327 13.8586 18.645C13.784 18.2651 14.0057 17.775 14.4162 17.6844C14.3949 17.7691 14.3934 18.1041 14.3878 18.3696L14.3883 18.3702ZM15.2666 26.7664C15.267 26.7502 15.2681 26.734 15.2696 26.7171C15.2949 26.4506 15.4385 26.13 15.4892 25.8684L16.0697 25.8895L16.6501 25.9107C16.6319 26.024 16.6233 26.1374 16.6171 26.2472C16.6162 26.2694 16.6145 26.291 16.6136 26.3127C16.6115 26.3561 16.6095 26.399 16.6074 26.4408C16.5952 26.692 16.5765 26.9127 16.4649 27.0601C16.4462 27.0847 16.4249 27.1074 16.4009 27.1275C16.3163 27.199 16.1944 27.2428 16.019 27.2506C15.9941 27.2517 15.9677 27.2522 15.9403 27.2522C15.8855 27.2517 15.8262 27.2477 15.7617 27.2408C15.603 27.2241 15.4903 27.1832 15.4132 27.1255C15.3746 27.0965 15.3446 27.063 15.3224 27.0261C15.3076 27.0014 15.296 26.9748 15.2873 26.9472C15.2787 26.9196 15.2726 26.8905 15.2696 26.86C15.266 26.8294 15.2655 26.7985 15.2666 26.766V26.7664ZM16.092 28.769L15.3817 28.8177C15.3909 28.7872 15.3989 28.7581 15.4066 28.7295C15.4102 28.7153 15.4141 28.7015 15.4177 28.6877C15.442 28.5912 15.4603 28.5065 15.4811 28.4345C15.4903 28.4034 15.4999 28.3754 15.5111 28.3492C15.5187 28.332 15.5263 28.3158 15.5354 28.3005C15.5399 28.2931 15.5446 28.2856 15.5496 28.2787C15.5888 28.2231 15.644 28.1853 15.7292 28.168C15.8145 28.1507 15.9306 28.1531 16.092 28.1778V28.7695V28.769ZM14.2143 29.9508C14.23 29.9025 14.264 29.8631 14.3071 29.8365C14.333 29.8207 14.3624 29.8094 14.3929 29.804C14.4623 29.7907 14.5546 29.7784 14.6623 29.7665C14.7911 29.7522 14.9418 29.74 15.1022 29.7296C15.1823 29.7247 15.2651 29.7202 15.3482 29.7164C15.3761 29.7153 15.404 29.7138 15.4319 29.7129C15.5714 29.7079 15.7125 29.7049 15.8469 29.7049C16.1697 29.7055 16.4569 29.7231 16.6095 29.7675C16.6222 29.7709 16.6355 29.7754 16.6491 29.7793C16.7317 29.806 16.8302 29.8473 16.8815 29.9143C16.8901 29.9256 16.8972 29.9374 16.9028 29.9503H14.2137L14.2143 29.9508ZM20.6826 26.7916C20.5974 26.5152 20.61 26.1369 20.607 25.7635H21.8754C21.8759 25.8319 21.8876 25.9082 21.9044 25.9886C21.9175 26.0531 21.9343 26.1201 21.951 26.1881C21.9551 26.2054 21.9596 26.2221 21.9637 26.2394C21.9851 26.325 22.0058 26.4112 22.0206 26.495C22.0292 26.5453 22.0358 26.5946 22.0393 26.6424C22.0469 26.7536 22.0352 26.8565 21.9901 26.9408C21.9774 26.965 21.9617 26.9876 21.9424 27.0088C21.8952 27.061 21.8288 27.1028 21.7364 27.131C21.6243 27.165 21.5234 27.1881 21.432 27.2014C21.2802 27.2235 21.1565 27.2182 21.0556 27.1906C21.0149 27.1793 20.9784 27.165 20.9449 27.1468C20.8445 27.0926 20.7745 27.0088 20.7248 26.9039C20.7081 26.8689 20.6943 26.8314 20.6821 26.792L20.6826 26.7916ZM22.0718 28.0355C22.0753 28.0379 22.0815 28.0462 22.089 28.0606C22.0916 28.065 22.0946 28.0704 22.0976 28.0764C22.1129 28.1055 22.1326 28.1478 22.1545 28.1985C22.194 28.2896 22.2417 28.4069 22.2829 28.5172C22.3331 28.6527 22.3747 28.7784 22.3823 28.835C22.3844 28.8502 22.3838 28.8606 22.3803 28.865L21.6234 28.964C21.605 28.8542 21.5822 28.7444 21.5624 28.6339C21.5492 28.5606 21.5371 28.4872 21.5284 28.4132C21.5152 28.3025 21.5101 28.1911 21.5198 28.0782C21.5279 28.0813 21.5365 28.0837 21.5462 28.0857C21.5842 28.0931 21.635 28.0897 21.6898 28.0822C21.7172 28.0782 21.7456 28.0733 21.7745 28.068C21.7887 28.0655 21.8029 28.0626 21.8171 28.0595C21.8456 28.0542 21.8735 28.0482 21.8999 28.0433C21.913 28.0408 21.9261 28.0384 21.9383 28.0364C21.9753 28.03 22.0083 28.0261 22.0332 28.0266C22.05 28.0266 22.0631 28.0295 22.0718 28.035V28.0355ZM23.0196 29.8005C23.1144 29.8094 23.2042 29.8267 23.2808 29.8607C23.292 29.8656 23.3027 29.8709 23.3128 29.8764C23.365 29.9045 23.4102 29.9423 23.4457 29.9927C23.4528 30.0025 23.4594 30.0134 23.4661 30.0247C23.4787 30.0468 23.4899 30.0714 23.499 30.0981C23.3386 30.0843 23.1758 30.0794 23.0119 30.0803C22.7938 30.0818 22.5731 30.0936 22.3524 30.1079C22.2423 30.1148 22.1317 30.1227 22.0216 30.1301C21.7466 30.1483 21.4726 30.1636 21.2042 30.1612C21.0966 30.1601 20.9901 30.1563 20.885 30.1483C20.8805 30.1483 20.8755 30.1479 20.8708 30.1479C20.8618 30.1479 20.8521 30.1483 20.8435 30.1488C20.8348 30.1493 20.8262 30.1503 20.8182 30.1513C20.8099 30.1517 20.8024 30.1523 20.7957 30.1523C20.7922 30.1523 20.7892 30.1523 20.7862 30.1513C20.7831 30.1513 20.78 30.1503 20.7775 30.1493C20.7719 30.1474 20.7678 30.1444 20.7643 30.1399C20.7557 30.1292 20.7532 30.1094 20.7592 30.0739C20.7836 29.935 21.0221 29.8729 21.1449 29.8567C21.3036 29.836 21.5786 29.8167 21.8759 29.804C22.1271 29.7931 22.3939 29.7867 22.6188 29.7873C22.7821 29.7873 22.9236 29.7916 23.0205 29.8005H23.0196ZM25.907 23.5984C25.9176 23.5973 25.9268 23.5964 25.9343 23.5955C25.9998 24.1008 26.0195 24.6196 25.9343 25.1231C25.9044 25.1044 25.8654 25.0615 25.8218 25.0024C25.778 24.9432 25.7293 24.8679 25.6786 24.7836C25.6584 24.7496 25.6381 24.7147 25.6177 24.6781C25.5874 24.624 25.5563 24.5674 25.5264 24.5102C25.5067 24.4723 25.4869 24.4338 25.4681 24.3959C25.4584 24.3767 25.4493 24.358 25.4402 24.3388C25.4219 24.3008 25.4041 24.2639 25.3869 24.2275C25.3783 24.2092 25.3702 24.1915 25.362 24.1737C25.2742 23.9792 25.2169 23.8191 25.227 23.7722C25.2418 23.7073 25.4899 23.6565 25.6923 23.6264C25.702 23.6249 25.7116 23.6235 25.7207 23.622C25.7963 23.6111 25.8633 23.6033 25.9059 23.5989L25.907 23.5984ZM25.5371 21.5205C25.5528 21.5151 25.5685 21.5096 25.5842 21.5052C25.6157 21.4958 25.6482 21.488 25.6812 21.4831C25.6979 21.4805 25.7142 21.4785 25.7314 21.4781L25.8334 22.7589L25.0724 22.8575C25.0799 22.7086 25.0733 22.5604 25.0597 22.4127C25.0505 22.3141 25.0389 22.2156 25.0262 22.1175C25.0196 22.0682 25.013 22.019 25.0069 21.9702C24.9937 21.8722 24.981 21.7737 24.9709 21.6756C25.0926 21.6923 25.2017 21.6599 25.3083 21.6165C25.3843 21.5854 25.4599 21.549 25.5376 21.5214L25.5371 21.5205ZM24.4387 19.9189C24.534 19.8066 24.6781 19.7351 24.8395 19.7351C24.9648 19.7351 25.0799 19.7786 25.1697 19.8504C25.2854 19.9431 25.359 20.083 25.359 20.2396C25.359 20.3963 25.2854 20.5362 25.1697 20.6288C25.0799 20.7007 24.9648 20.7441 24.8395 20.7441C24.6781 20.7441 24.534 20.6727 24.4387 20.5604C24.3645 20.4731 24.32 20.3613 24.32 20.2396C24.32 20.1179 24.3645 20.0061 24.4387 19.9189ZM22.1296 17.7336C22.1565 17.7287 22.1809 17.7292 22.2043 17.7331C22.2428 17.7396 22.2783 17.7563 22.3179 17.7721C22.4467 17.8248 22.6837 17.9479 22.9449 18.0928C23.0977 18.177 23.2585 18.2691 23.4112 18.3593C23.4985 18.4105 23.5833 18.4612 23.6623 18.5096C23.7613 18.5696 23.8512 18.6263 23.9257 18.675C23.9557 18.6948 23.983 18.713 24.0079 18.7303C24.0328 18.7475 24.0545 18.7628 24.0738 18.777C24.0987 18.7952 24.155 18.8308 24.1901 18.8706C24.1977 18.8795 24.2047 18.8884 24.2099 18.8977C24.2123 18.9021 24.2144 18.9066 24.2164 18.9115C24.22 18.9208 24.2215 18.9297 24.2204 18.9386C24.2195 18.9475 24.2159 18.9564 24.2093 18.9648C24.2063 18.9691 24.1723 18.9751 24.1312 18.9869C24.1103 18.9928 24.088 18.9997 24.0667 19.0091C24.0455 19.0184 24.0251 19.0288 24.0089 19.0415C23.8527 19.1652 23.6771 19.3278 23.573 19.5121C23.5386 19.5735 23.5116 19.6371 23.497 19.7026C23.4919 19.7061 23.4858 19.7086 23.4792 19.71C23.4726 19.7115 23.4655 19.712 23.4575 19.7115C23.4498 19.7115 23.4412 19.7095 23.4326 19.7075C23.3884 19.6968 23.3332 19.6668 23.2772 19.6317C23.2549 19.6175 23.2321 19.6026 23.2104 19.5879C23.1443 19.5435 23.0829 19.4997 23.0449 19.481C22.9764 19.4475 22.9024 19.4238 22.8292 19.3977C22.7745 19.3785 22.7202 19.3578 22.6695 19.3312C22.6527 19.3223 22.636 19.313 22.6197 19.3027C22.1743 19.0144 22.0997 18.2055 22.1296 17.7341V17.7336ZM21.2351 16.5079C21.4584 16.5401 21.8267 16.5902 21.9769 16.7479C21.0737 16.9705 21.1438 18.2726 21.3416 18.9662C21.5193 19.5893 21.8856 19.9194 22.3706 20.3259C22.3524 20.4391 22.3198 20.548 22.3275 20.6658C22.4037 21.7796 22.5168 23.1574 22.4355 24.2633C22.4061 24.6614 22.3898 24.7905 21.9536 24.8299C21.1494 24.9019 20.191 24.8053 19.362 24.8259C18.3386 24.8516 17.298 24.9555 16.2711 24.9788C15.6785 24.992 15.7226 24.853 15.6425 24.3531C15.3598 22.6008 15.0464 18.7608 15.5481 17.1321C15.8413 16.1798 16.2264 16.2852 17.1342 16.3036C18.3524 16.3281 20.0616 16.34 21.2357 16.5085L21.2351 16.5079ZM17.6359 14.8237C17.7455 14.6714 19.2123 14.8892 19.4914 14.8267V15.4676L17.6648 15.4178C17.6908 15.2577 17.5431 14.9532 17.6359 14.8237ZM18.7572 13.84C16.6877 13.7758 14.4603 13.9714 12.4212 13.6369C10.9768 13.3999 10.2086 12.9714 9.787 11.564C9.28115 9.87525 9.14316 5.7426 9.81237 4.12432C10.0265 3.60608 10.9671 2.88536 11.5242 2.73216C11.9565 2.61344 12.6272 2.5957 13.0874 2.57501C16.6495 2.41442 21.2484 2.71984 24.7172 3.52035C26.6882 3.97506 27.0267 4.31251 26.9486 6.32833C26.8846 7.98061 26.7665 10.0669 26.536 11.6916C26.3291 13.1522 26.0734 13.9774 24.3889 14.0897C22.5462 14.2123 20.6035 13.8965 18.7572 13.8394V13.84Z" fill="#CCA015"/>
</g>
<defs>
<clipPath id="clip0_2648_70">
<rect width="32" height="32" fill="white"/>
</clipPath>
</defs>
</svg>
