<svg width="81" height="24" viewBox="0 0 81 24" fill="none" xmlns="http://www.w3.org/2000/svg">
<path d="M12.7852 11.9508C12.0393 11.4824 11.4092 11.3051 10.4335 11.0319C9.30036 10.7134 8.41175 10.6218 7.14542 10.4967C6.44045 10.4274 5.49005 10.3554 4.35514 10.3383V4.42374H6.82949C7.90957 4.42374 8.76598 4.62412 9.39958 5.02402L13.6337 3.18979C12.9427 2.38999 12.0393 1.81797 10.9244 1.47544C9.8095 1.13291 8.60671 0.960793 7.31775 0.960793H0V23.5898H8.39783C9.98879 23.5898 11.3221 23.3184 12.3961 22.7755C13.4701 22.2326 14.2839 21.479 14.8357 20.5122C15.3875 19.5463 15.6634 18.4348 15.6634 17.1777C15.6634 16.6648 15.6442 15.8145 15.2369 14.8117C14.5293 13.0725 13.1777 12.1974 12.786 11.9508H12.7852ZM10.7677 18.5316C10.5354 19.0231 10.155 19.4119 9.62673 19.697C9.09844 19.983 8.39261 20.1252 7.51009 20.1252H4.35601V13.7311H7.36997C8.56667 13.7311 9.49009 13.9999 10.1402 14.5368C10.7904 15.0746 11.1159 15.8453 11.1159 16.8515C11.1159 17.48 10.9992 18.04 10.7677 18.5316Z" fill="#FFC81A"/>
<path d="M28.6957 16.252C28.6957 17.5091 28.4399 18.5119 27.929 19.2611C27.4181 20.0096 26.5869 20.3838 25.4372 20.3838C24.2875 20.3838 23.4737 20.0096 22.9629 19.2611C22.452 18.5127 22.1961 17.51 22.1961 16.252V9.51453H17.8401V16.7487C17.8401 18.2002 18.136 19.4718 18.7287 20.5627C19.3214 21.6545 20.1839 22.4997 21.3162 23.1C22.4485 23.7003 23.8219 24 25.4372 24C27.0525 24 28.4425 23.7003 29.5756 23.1C30.7088 22.4997 31.5704 21.6545 32.1631 20.5627C32.7558 19.4718 33.0517 18.2002 33.0517 16.7487V9.51453H28.6957V16.252Z" fill="#FFC81A"/>
<path d="M39.4285 1.08837C39.0334 0.854595 38.5982 0.737282 38.1221 0.737282C37.4015 0.737282 36.7862 0.994178 36.2753 1.50882C35.7644 2.02347 35.5085 2.62888 35.5085 3.32593C35.5085 4.02297 35.7609 4.62325 36.2666 5.12591C36.7714 5.62857 37.3902 5.88032 38.1221 5.88032C38.8541 5.88032 39.4607 5.62942 39.9777 5.12591C40.4947 4.62325 40.7532 4.02297 40.7532 3.32593C40.7532 2.84553 40.6313 2.41138 40.3876 2.02347C40.1439 1.6347 39.8245 1.32386 39.4294 1.08923L39.4285 1.08837Z" fill="#FFC81A"/>
<path d="M40.2649 9.51453H35.8567V23.589H40.2649V9.51453Z" fill="#FFC81A"/>
<path d="M47.7743 0H43.3313V23.589H47.7743V0Z" fill="#FFC81A"/>
<path d="M61.9048 11.7949C61.823 11.4635 61.5567 11.0867 61.1033 10.6637C60.6498 10.2416 60.0493 9.87505 59.2999 9.56677C58.5506 9.2585 57.6942 9.10351 56.7298 9.10351C55.3713 9.10351 54.1772 9.42891 53.1493 10.0806C52.1214 10.7322 51.3199 11.6211 50.7446 12.7463C50.1693 13.8723 49.8821 15.144 49.8821 16.5603C49.8821 17.9767 50.1693 19.2492 50.7446 20.3744C51.3199 21.5004 52.1206 22.3858 53.1493 23.0315C54.1772 23.6772 55.3713 24 56.7298 24C57.5897 24 58.3791 23.8459 59.0998 23.5367C59.8195 23.2285 60.4296 22.8508 60.9292 22.4055C61.4288 21.9594 61.7717 21.5372 61.9571 21.1373V23.589H66.3479V0H61.9048V11.7941V11.7949ZM61.3905 18.6258C61.0476 19.226 60.5802 19.6944 59.9875 20.0318C59.3948 20.3692 58.7273 20.5379 57.984 20.5379C57.2982 20.5379 56.6715 20.3726 56.1023 20.0412C55.5331 19.7099 55.0771 19.244 54.7342 18.6437C54.3913 18.0435 54.2207 17.3498 54.2207 16.5612C54.2207 15.7725 54.3921 15.078 54.7342 14.4786C55.0771 13.8783 55.5331 13.4099 56.1023 13.0725C56.6715 12.736 57.2982 12.5665 57.984 12.5665C58.7273 12.5665 59.3957 12.7377 59.9875 13.0811C60.5802 13.4236 61.0476 13.8955 61.3905 14.4957C61.7325 15.096 61.9048 15.7845 61.9048 16.5612C61.9048 17.3379 61.7334 18.0272 61.3905 18.6266V18.6258Z" fill="#FFC81A"/>
<path d="M79.8424 9.38609C79.3019 9.1977 78.7014 9.10351 78.0391 9.10351C77.1209 9.10351 76.3376 9.2722 75.6865 9.60959C75.0355 9.94698 74.5281 10.3272 74.1617 10.7493C73.8867 11.067 73.6926 11.3428 73.5777 11.5766V11.7958H73.4907C73.5107 11.7273 73.5403 11.6545 73.5777 11.5766V9.5154H69.1521V23.5898H73.5777V16.27C73.5777 15.7785 73.6996 15.2502 73.9433 14.6841C74.187 14.1181 74.5534 13.6386 75.0408 13.2438C75.529 12.8499 76.1382 12.6521 76.8702 12.6521C77.4855 12.6521 77.9999 12.7497 78.4124 12.9432C78.825 13.1376 79.1061 13.326 79.2575 13.5093L80.9999 9.94356C80.7675 9.76116 80.3811 9.57534 79.8415 9.38609H79.8424Z" fill="#FFC81A"/>
<path d="M73.5773 11.7949V11.5757C73.5397 11.6536 73.5114 11.7264 73.4917 11.7949H73.5773Z" fill="#FFC81A"/>
<mask id="mask0_30_2280" style="mask-type:luminance" maskUnits="userSpaceOnUse" x="5" y="3" width="10" height="9">
<path d="M10.3493 7.23417C10.3493 7.7942 10.2275 8.31142 9.98377 8.78582C9.74008 9.26022 9.38237 9.637 8.91239 9.91701C8.51813 10.1516 8.14737 10.2261 7.22482 10.3366C6.72351 10.3965 6.11602 10.4599 5.42236 10.5122C7.27965 10.8821 9.13781 11.2529 10.9951 11.6228C11.6104 11.4969 12.197 11.2023 12.7549 10.7399C13.3128 10.2775 13.7715 9.67981 14.1318 8.94852C14.4912 8.21722 14.6722 7.38831 14.6722 6.46263C14.6722 5.07968 14.3267 3.98873 13.6357 3.18807L9.40152 5.0223C10.0342 5.4222 10.351 6.15949 10.351 7.23331L10.3493 7.23417Z" fill="white"/>
</mask>
<g mask="url(#mask0_30_2280)">
<path d="M7.12653 11.9165C9.98845 11.9165 12.3085 9.63384 12.3085 6.81801C12.3085 4.00218 9.98845 1.71949 7.12653 1.71949C4.26462 1.71949 1.94458 4.00218 1.94458 6.81801C1.94458 9.63384 4.26462 11.9165 7.12653 11.9165Z" stroke="url(#paint0_linear_30_2280)" stroke-width="10.2758" stroke-miterlimit="10"/>
</g>
<defs>
<linearGradient id="paint0_linear_30_2280" x1="4.51645" y1="16.7267" x2="9.58393" y2="-3.13124" gradientUnits="userSpaceOnUse">
<stop offset="0.3" stop-color="#FFC81A" stop-opacity="0"/>
<stop offset="0.38" stop-color="#FFC81A" stop-opacity="0.31"/>
<stop offset="0.46" stop-color="#FFC81A" stop-opacity="0.6"/>
<stop offset="0.52" stop-color="#FFC81A" stop-opacity="0.82"/>
<stop offset="0.57" stop-color="#FFC81A" stop-opacity="0.95"/>
<stop offset="0.6" stop-color="#FFC81A"/>
</linearGradient>
</defs>
</svg>
